<?xml version="1.0" encoding="UTF-8"?>
<svg id="Layer_1" data-name="Layer 1" xmlns="http://www.w3.org/2000/svg" viewBox="0 0 551 340">
  <defs>
    <style>
      .cls-1 {
        fill: #ea563d;
      }

      .cls-2 {
        fill: #dd5c3b;
      }

      .cls-3 {
        fill: #204e93;
      }
    </style>
  </defs>
  <path class="cls-3" d="M283,0c10.09,1.55,19.9,4.02,28.88,9.05,23.79,13.31,35.49,34.75,40.33,60.63,1.94,10.34,1.58,20.55-3.43,30.19-4.79,9.23-12.57,13.95-22.65,15.17-3,.36-6.44,.53-7.42-3.26-.96-3.71,2.02-4.7,4.83-5.68,2.96-1.03,5.53-2.8,5.88-6.16,.34-3.32-1.77-5.59-4.33-7.38-6.61-4.64-14.36-6.16-22.04-7.57-22.94-4.23-45.69-3.57-68.11,3.3-3.54,1.08-6.83,2.68-9.63,5.14-4.94,4.34-3.83,10.06,2.37,12.39,.62,.23,1.27,.42,1.92,.56,2.57,.56,4.44,1.93,4.1,4.75-.36,3.05-2.71,4.03-5.46,3.96-9.35-.24-17.13-3.74-22.88-11.29-6.5-8.52-7.67-18.49-6.49-28.55,3.55-30.28,16.77-54.44,45.2-68.37,7.86-3.85,16.37-5.43,24.91-6.88h14Zm-3.65,18.45c-2.36,.02-4.58,.48-4.67,2.95-.09,2.48,2.19,3.03,4.25,3.32,12.32,1.71,22.9,6.89,31.4,16.03,5.88,6.32,10,13.68,12.44,21.98,.68,2.32,1.02,5.63,4.54,4.55,3.56-1.1,1.79-4.17,1.21-6.39-.71-2.73-1.68-5.43-2.88-7.98-9.3-19.82-25.11-30.91-46.3-34.44Z"/>
  <path class="cls-3" d="M293,340c-1.51-.69-3.01-1.41-4.54-2.05-5.31-2.21-8.98-5.86-9.53-11.78-.58-6.13,2.68-10.53,7.4-13.84,7.49-5.25,16.22-6.86,25.09-7.36,4.05-.23,5.82-1.51,5.4-5.61-.2-1.98,.06-4.01-.14-5.99-.8-7.87-5.64-11.17-13.16-9.07-5.59,1.56-7.24,7.26-2.84,11.01,3.49,2.97,1.74,4.87-.66,6.74-4.04,3.15-9.86,2.61-13.21-.98-3.67-3.94-3.74-9.83-.17-14.16,8.7-10.54,33.42-9.79,41.35,1.33,2.4,3.36,3.16,7.27,3.14,11.37-.03,9.5-.05,18.99,.01,28.49,.04,5.47,2.17,7.6,7.49,7.74,5.7,.15,9.03-2.42,9.08-7.51,.12-12.33,.03-24.66,.05-36.99,0-3.84-1.7-6.28-5.45-7.35-.97-.28-2.63-.4-2.26-2.04,.26-1.16,1.58-1.04,2.55-1.05,5.33-.03,11.63-1.79,15.76,.44,5.63,3.05,9.01-.13,13.23-1.36,11.97-3.49,29.31,3.48,27.75,21.3-.72,8.27,.05,16.66-.18,24.98-.14,5.02,1.4,8.44,6.59,9.59,.66,.15,1.21,.52,1.14,2.15-9.64,.48-19.33,.41-30,.01q7.96-6.68,7.96-16.94c0-8,.06-16-.04-23.99-.09-7.77-4-12.89-9.6-12.88-6.9,.01-12.95,5.73-13.11,12.97-.23,10.49,.12,21-.2,31.49-.16,5.25,4.14,6.1,7.53,8.44-1.93,1.61-3.81,1.15-5.51,1.16-13.5,.05-26.99,.09-40.49-.01-2.44-.02-5.4,1.15-6.93-2.34-.6-1.37-1.67-.03-2.47,.38-2.36,1.23-4.71,2.48-7.06,3.72h-14Zm23.8-20.75c0-2.26,.03-4.08,0-5.91-.03-1.67-.72-2.74-2.51-3.16-9.23-2.17-19.35,7.83-17.35,17.19,1.59,7.43,7.55,9.77,13.85,5.61,5.23-3.45,6.77-8.3,6.01-13.75Z"/>
  <path class="cls-3" d="M0,307c1.32-7.67,3.49-15.03,9.64-20.3,8.48-7.27,18.12-9.65,28.8-5.52,3.42,1.32,4.53,.52,4.37-3.05-.17-3.82-.04-7.66-.04-11.49q0-9.29-7.72-13.42c.22-1.7,1.62-1.42,2.68-1.46,2.16-.08,4.33,0,6.49,.02q13.01,.14,13.01,12.94c0,18.98-.03,37.97,.01,56.95,.01,6.36-1.9,13.77,8.41,15.61-8.19-.26-15.9,3.88-23.02-1.44-1.21-.91-1.78,.01-2.58,.44-2.35,1.24-4.7,2.48-7.05,3.72h-11c-10.13-3.09-16.92-9.66-20.1-19.75-.94-2.99-1.28-6.16-1.9-9.25,0-1.33,0-2.67,0-4Zm42.77,1.47c0-3.82,.02-7.64,0-11.46-.03-6.33-2.13-9.32-7.77-11.1-4.8-1.52-9,.23-12.29,5.12-6.21,9.23-5.93,29.67,.53,38.66,3.24,4.51,7.98,5.56,12.66,2.6,4.3-2.73,7.11-6.38,6.9-11.85-.15-3.98-.03-7.97-.03-11.96Z"/>
  <path class="cls-3" d="M422,340c-2.45-1.02-5.08-1.74-7.31-3.11-9.87-6.08-8.97-18.74,1.63-25.2,7.48-4.56,15.82-6.13,24.32-6.64,4.27-.26,5.56-1.96,5.17-5.84-.23-2.31,0-4.69-.41-6.96-1.24-6.83-3.79-8.65-10.67-8.25-3.08,.18-5.56,1.21-6.89,4.09-1.37,2.95-.49,5.55,1.79,7.67,3.33,3.1,.93,5.07-1.46,6.7-4.37,2.99-10.31,1.86-13.38-2.3-3.16-4.27-2.6-10.5,1.27-14.11,9.07-8.45,28.54-8.99,38.1-.95,4.22,3.55,5.91,8.35,5.94,13.76,.05,8.15,.02,16.31,.03,24.47q0,9.49,7.59,14.34c-7.37-.68-15.03,3.58-22.1-1.87-1.18-.91-1.81-.04-2.61,.39-2.34,1.25-4.67,2.54-7,3.81h-14Zm23.83-20.72c0-2.28,0-3.94,0-5.6,0-2.46-1.15-3.5-3.68-3.55-9.85-.18-16.99,7.16-16.1,16.7,.67,7.21,7.28,10.32,13.43,6.4,5.42-3.46,7.19-8.43,6.35-13.95Z"/>
  <path class="cls-3" d="M90,340c-12.22-3.92-20.31-11.56-22.71-24.63-3.24-17.64,7.1-33.32,23.89-35.96,13.4-2.11,26.71,6.91,29.86,20.08,.86,3.6-.33,4.81-3.93,4.76-9.66-.13-19.32,.09-28.98-.09-4.06-.08-5.96,1.5-5.81,5.49,.25,6.89,1.41,13.61,4.84,19.69,4,7.1,12.31,8.48,17.69,3.11,3.37-3.36,3.57-7,.56-10.55-2.86-3.38-2.45-5.66,1.49-7.71,3.53-1.83,7.09-1.84,10.39,.53,3.54,2.55,5.15,6.12,4.43,10.44-1.15,6.9-6.24,10.3-12.08,12.86-1.82,.8-3.76,1.33-5.64,1.98h-14Zm4.57-40.26c2.35-.91,6.87,2.02,8.76-1.65,1.71-3.34-.83-7.03-2.59-10.2-1.51-2.72-3.78-4.75-7.17-4.48-3.3,.27-5.34,2.37-6.59,5.32-4.09,9.63-5.19,11.69,7.59,11Z"/>
  <path class="cls-3" d="M487,340c-4.56-1.52-9.42-2.2-13.51-4.99-6.06-4.13-7.93-10.75-4.61-16.46,2.47-4.24,7.49-6.05,12.09-4.36,4.81,1.77,5.76,6.35,2.02,9.75-4.83,4.38-4.03,8.37,2.21,10.63,5.65,2.05,11.2,1.53,16.41-1.33,6.22-3.41,6.61-9.24,1.06-13.66-4.51-3.59-9.93-5.39-15.13-7.6-4.65-1.97-8.94-4.49-12.67-7.87-7.22-6.57-6.38-15.81,1.81-21.04,9.35-5.97,25.3-5.48,34.19,.95,2.72,1.96,4.51,4.46,5.11,7.7,.66,3.58-.2,6.85-3.61,8.54-3.45,1.71-7.17,1.83-10.3-.89-2.15-1.86-2.9-3.74-.01-6.1,4.31-3.54,3.48-7.46-1.8-9.21-5.13-1.7-10.25-1.47-14.85,1.64-4.31,2.91-4.43,7.55-.4,10.86,4.59,3.77,10.17,5.63,15.6,7.73,4.72,1.82,9.07,4.2,12.76,7.66,9.12,8.55,7.36,19.79-3.95,25.14-2.4,1.13-4.95,1.95-7.43,2.91h-15Z"/>
  <path class="cls-3" d="M551,338c-10.03,.44-20.04,.55-30.11-.07,.17-2.33,1.66-2.08,2.64-2.44,3.34-1.25,5.13-3.58,5.14-7.17,.01-12.49,0-24.97,0-37.46,0-4.03-2.55-5.86-5.95-7.04-.83-.29-2.16-.49-1.77-1.88,.26-.94,1.28-.99,2.1-1,5.49-.03,10.99-.08,16.48,.01,3.69,.06,3.48,2.9,3.48,5.42,.02,13.49-.02,26.97,.04,40.46,.03,6.51,1.38,7.98,7.96,9.18v2Z"/>
  <path class="cls-3" d="M316.24,125.51c.44,13.01-5.97,23.39-13.42,33.08-3.26,4.24-4.01,6.89-.26,11.29,6.05,7.1,10.8,15.2,14.83,23.65,1.4,2.93,3.85,6.44-.61,8.57-4.08,1.95-5.43-1.86-6.88-4.61-4.2-7.98-8.91-15.62-14.26-22.88-2.1-2.85-3.44-3.15-6.06-.32-8.25,8.92-8.29,8.75-2.55,19.14,6.18,11.17,9.93,23.26,12.86,35.61,.66,2.78,.56,5.63-2.84,6.46-3.78,.91-4.85-1.82-5.52-4.83-2.65-11.95-7.03-23.26-12.83-34.03-.69-1.28-1.11-3.18-2.73-3.3-1.79-.14-2.09,1.91-2.79,3.12-5.21,8.99-8.89,18.62-11.62,28.63-.53,1.93-.93,3.89-1.41,5.83-.68,2.82-1.86,5.22-5.38,4.48-3.86-.81-3.75-3.7-3.03-6.67,2.48-10.22,5.63-20.23,10.15-29.74,1.71-3.61,3.46-7.26,5.72-10.52,2.5-3.61,2.03-6.41-1.05-9.16-.49-.44-.92-.96-1.38-1.45-6.4-6.9-6.48-6.96-12.12,.98-3.57,5.02-7,10.15-9.74,15.69-.81,1.64-1.64,3.28-2.57,4.86-1.46,2.45-3.57,3.7-6.27,2.19-2.53-1.41-2.43-3.82-1.36-6.13,4.21-9.11,9.27-17.79,15.63-25.5,3.54-4.29,3.47-7.01,.01-11.37-6.65-8.38-12.14-17.59-13.36-28.61-1.73-15.78,4.42-28.24,16.35-38.17,1.94-1.62,4.3-2.3,6.26-.12,2.04,2.28,1.37,4.62-.66,6.64-1.54,1.53-3.19,2.94-4.65,4.53-9.36,10.14-11.55,24.22-5.68,36.72,2.34,4.99,5.44,9.54,8.53,14.1,2.16,3.17,3.58,2.6,6.03-.05,6.5-7.03,9.49-13.25,3.21-22.95-6.62-10.24-7.19-22.36-2.15-34.08,.53-1.22,1.16-2.4,1.8-3.57,1.47-2.68,3.67-4.15,6.58-2.65,2.85,1.47,2.48,4.08,1.18,6.5-5.76,10.72-4.27,21.19,1.08,31.5,.64,1.24,.77,3.33,2.6,3.24,1.41-.07,1.67-1.9,2.26-3.04,5.46-10.51,6.83-21.14,.94-32-1.3-2.4-1.75-4.93,1.08-6.53,3-1.7,5.04-.06,6.57,2.5,6.04,10.09,6.82,20.71,3.06,31.73-1.73,5.06-3.94,9.92-6.84,14.42-1.39,2.16-1.31,3.91,.28,5.88,2.72,3.37,5.31,6.85,7.93,10.29,1.34,1.76,2.72,1.84,3.99,.01,4.77-6.82,9.92-13.49,11.74-21.85,2.84-13.05-1.15-23.95-10.9-32.88-.61-.56-1.34-1.02-1.86-1.66-1.68-2.02-2.1-4.28-.27-6.33,1.74-1.95,3.94-1.61,5.85-.15,9.59,7.35,15.39,16.88,16.48,29.05,.13,1.49,.02,3,.02,4.5Zm-29.9,37.78c-.8-1.15-1.7-2.53-2.69-3.84-8-10.56-7.88-10.45-15.99,.13-2.65,3.46-2.93,5.9,.6,8.73,2.78,2.22,4.35,7.17,7.6,7.15,3.34-.02,4.94-4.87,7.52-7.4,1.26-1.24,2.8-2.4,2.96-4.77Z"/>
  <path class="cls-3" d="M191.47,282.99c3.55-3.09,6.65-2.05,9.45-2.08,13.36-.11,13.36-.05,13.36,13.07,0,10.5,0,21,0,31.5,0,2.35,.04,4.69,1.25,6.8,2.29,3.99,7.27,4.67,9.78,1.04,10.33-14.93,20.47-30,30.73-44.98,1.71-2.5,.68-3.22-1.79-3.28-1.17-.03-2.35,.11-3.5-.05-7.7-1.13-13.06,.95-15.27,9.35-1.12,4.23-3.98,7.91-9.53,6.79-1.91-.39-3.72-.65-1.87-3.49,2.73-4.19,2.78-8.87,.59-13.29-1.22-2.47-.85-3.44,1.8-3.45,15.5-.02,31-.02,46.5,.03,2.65,0,3.22,1.46,1.86,3.58-2.06,3.23-4.23,6.39-6.39,9.55-8.27,12.11-16.57,24.2-24.82,36.32-.71,1.05-2.09,2.13-1.4,3.5,.71,1.42,2.39,.67,3.65,.86,.33,.05,.67-.03,1,.02,9.1,1.25,16.29-.32,18.85-10.91,.89-3.69,3.68-6.94,8.64-5.32,1.9,.62,2.73,1.49,1.63,3.67-2.27,4.51-2.99,9.16,.08,13.7,.99,1.46,.47,2.15-1.09,2.3-1.16,.11-2.33,.09-3.5,.09-34.83,0-69.66,0-104.5-.03-1.58,0-3.28,.36-4.68-.6-.04-1.96,1.47-1.84,2.43-2.23,3.55-1.42,5.06-4.06,5.04-7.8-.04-10.33,.11-20.67-.07-31-.13-7.49-4.1-12.32-9.67-12.37-6.52-.06-13.34,5.67-13.57,12.31-.37,10.82-.19,21.66-.08,32.49,.05,4.67,4,6.04,7.35,8.53h-28.91c.07-.52,.05-1.06,.17-1.1,6.72-1.91,8.11-6.68,7.8-13.05-.41-8.65-.29-17.33-.04-25.99,.19-6.7,.34-13.06-8.19-14.28,.27-2.39,1.66-2.23,2.7-2.24,5-.08,10-.06,15-.02,.82,0,2.18-.01,2.37,.4,2.5,5.46,5.35,1.43,7.8,.2,12.67-6.37,32.18,.49,31.59,19.57-.28,8.99-.09,18,0,27,.05,5.58,2.44,7.79,8.01,7.76,5.53-.03,7.89-2.27,7.94-7.85,.08-10,.09-20,.02-30-.04-6.32,1.99-13.72-8.52-15.01Z"/>
  <path class="cls-3" d="M181.84,133.28c-7.75-.07-13.19-5.61-13.06-13.28,.12-7.44,6.08-13.29,13.43-13.19,7.36,.1,13.16,6.09,13.06,13.49-.09,7.57-5.76,13.05-13.43,12.98Zm-2.91-22.96c-6.85,2.74-9.24,7.23-7.55,13.17,1.16,4.07,5.3,6.79,9.47,6.21-6.15-7.22-6.58-10.74-1.92-19.37Z"/>
  <path class="cls-3" d="M203.89,154.53c-3.43-.03-5.84-2.48-5.79-5.88,.05-3.3,2.69-5.89,5.95-5.84,3.26,.05,5.83,2.7,5.79,5.97-.04,3.35-2.55,5.78-5.95,5.75Zm-1.29-10.17c-3.03,1.21-4.09,3.2-3.35,5.83,.51,1.8,2.35,3.01,4.2,2.75-2.73-3.2-2.91-4.76-.85-8.58Z"/>
  <path class="cls-3" d="M198.72,22.85c-4.13-.04-7.03-2.99-6.96-7.08,.07-3.96,3.24-7.08,7.15-7.03,3.92,.06,7.01,3.24,6.96,7.19-.05,4.03-3.07,6.96-7.15,6.92Zm-1.55-12.24c-3.65,1.46-4.92,3.85-4.02,7.01,.62,2.17,2.82,3.62,5.05,3.31-3.28-3.85-3.5-5.72-1.02-10.32Z"/>
  <path class="cls-3" d="M351.75,22.39c-6.49-.06-11.04-4.69-10.93-11.12,.1-6.23,5.09-11.13,11.24-11.04,6.16,.09,11.01,5.1,10.94,11.29-.08,6.34-4.83,10.93-11.24,10.87Zm-2.44-19.23c-5.73,2.29-7.73,6.05-6.32,11.02,.97,3.41,4.43,5.68,7.93,5.2-5.15-6.05-5.51-8.99-1.61-16.22Z"/>
  <path class="cls-2" d="M351.48,152.17c-6.94-.06-11.81-5.02-11.7-11.89,.11-6.66,5.44-11.9,12.02-11.81,6.59,.09,11.78,5.45,11.7,12.08-.08,6.78-5.16,11.69-12.02,11.63Zm-2.61-20.56c-6.13,2.45-8.27,6.47-6.76,11.79,1.04,3.65,4.74,6.08,8.48,5.56-5.51-6.47-5.89-9.62-1.72-17.35Z"/>
  <path class="cls-3" d="M334.11,175.03c-3.77-.04-6.42-2.78-6.35-6.59,.06-3.69,2.96-6.59,6.53-6.54,3.58,.05,6.4,3.02,6.35,6.69-.05,3.75-2.8,6.47-6.53,6.44Zm-1.42-11.39c-3.33,1.36-4.49,3.58-3.67,6.53,.56,2.02,2.58,3.36,4.61,3.08-2.99-3.58-3.2-5.33-.94-9.61Z"/>
  <path class="cls-1" d="M203.86,278.9c-5.03-.05-8.56-3.64-8.48-8.62,.08-4.83,3.95-8.62,8.71-8.56,4.78,.07,8.54,3.95,8.48,8.75-.06,4.91-3.74,8.47-8.71,8.42Zm-1.89-14.9c-4.44,1.78-6,4.69-4.9,8.54,.75,2.64,3.44,4.4,6.15,4.03-3.99-4.69-4.27-6.97-1.25-12.57Z"/>
</svg>