<?xml version="1.0" encoding="UTF-8"?>
<svg id="Layer_2" data-name="Layer 2" xmlns="http://www.w3.org/2000/svg" viewBox="0 0 194.73 235.67">
  <defs>
    <style>
      .cls-1 {
        fill: #dd5c3b;
      }

      .cls-2 {
        fill: #204e93;
      }
    </style>
  </defs>
  <g id="Layer_1-2" data-name="Layer 1">
    <path class="cls-2" d="M114.22,0c10.09,1.55,19.9,4.02,28.88,9.05,23.79,13.31,35.49,34.75,40.33,60.63,1.94,10.34,1.58,20.55-3.43,30.19-4.79,9.23-12.57,13.95-22.65,15.17-3,.36-6.44,.53-7.42-3.26-.96-3.71,2.02-4.7,4.83-5.68,2.96-1.03,5.53-2.8,5.88-6.16,.34-3.32-1.77-5.59-4.33-7.38-6.61-4.64-14.36-6.16-22.04-7.57-22.94-4.23-45.69-3.57-68.11,3.3-3.54,1.08-6.83,2.68-9.63,5.14-4.94,4.34-3.83,10.06,2.37,12.39,.62,.23,1.27,.42,1.92,.56,2.57,.56,4.44,1.93,4.1,4.75-.36,3.05-2.71,4.03-5.46,3.96-9.35-.24-17.13-3.74-22.88-11.29-6.5-8.52-7.67-18.49-6.49-28.55,3.55-30.28,16.77-54.44,45.2-68.37,7.86-3.85,16.37-5.43,24.91-6.88h14Zm-3.65,18.45c-2.36,.02-4.58,.48-4.67,2.95-.09,2.48,2.19,3.03,4.25,3.32,12.32,1.71,22.9,6.89,31.4,16.03,5.88,6.32,10,13.68,12.44,21.98,.68,2.32,1.02,5.63,4.54,4.55,3.56-1.1,1.79-4.17,1.21-6.39-.71-2.73-1.68-5.43-2.88-7.98-9.3-19.82-25.11-30.91-46.3-34.44Z"/>
    <path class="cls-2" d="M147.46,125.51c.44,13.01-5.97,23.39-13.42,33.08-3.26,4.24-4.01,6.89-.26,11.29,6.05,7.1,10.8,15.2,14.83,23.65,1.4,2.93,3.85,6.44-.61,8.57-4.08,1.95-5.43-1.86-6.88-4.61-4.2-7.98-8.91-15.62-14.26-22.88-2.1-2.85-3.44-3.15-6.06-.32-8.25,8.92-8.29,8.75-2.55,19.14,6.18,11.17,9.93,23.26,12.86,35.61,.66,2.78,.56,5.63-2.84,6.46-3.78,.91-4.85-1.82-5.52-4.83-2.65-11.95-7.03-23.26-12.83-34.03-.69-1.28-1.11-3.18-2.73-3.3-1.79-.14-2.09,1.91-2.79,3.12-5.21,8.99-8.89,18.62-11.62,28.63-.53,1.93-.93,3.89-1.41,5.83-.68,2.82-1.86,5.22-5.38,4.48-3.86-.81-3.75-3.7-3.03-6.67,2.48-10.22,5.63-20.23,10.15-29.74,1.71-3.61,3.46-7.26,5.72-10.52,2.5-3.61,2.03-6.41-1.05-9.16-.49-.44-.92-.96-1.38-1.45-6.4-6.9-6.48-6.96-12.12,.98-3.57,5.02-7,10.15-9.74,15.69-.81,1.64-1.64,3.28-2.57,4.86-1.46,2.45-3.57,3.7-6.27,2.19-2.53-1.41-2.43-3.82-1.36-6.13,4.21-9.11,9.27-17.79,15.63-25.5,3.54-4.29,3.47-7.01,.01-11.37-6.65-8.38-12.14-17.59-13.36-28.61-1.73-15.78,4.42-28.24,16.35-38.17,1.94-1.62,4.3-2.3,6.26-.12,2.04,2.28,1.37,4.62-.66,6.64-1.54,1.53-3.19,2.94-4.65,4.53-9.36,10.14-11.55,24.22-5.68,36.72,2.34,4.99,5.44,9.54,8.53,14.1,2.16,3.17,3.58,2.6,6.03-.05,6.5-7.03,9.49-13.25,3.21-22.95-6.62-10.24-7.19-22.36-2.15-34.08,.53-1.22,1.16-2.4,1.8-3.57,1.47-2.68,3.67-4.15,6.58-2.65,2.85,1.47,2.48,4.08,1.18,6.5-5.76,10.72-4.27,21.19,1.08,31.5,.64,1.24,.77,3.33,2.6,3.24,1.41-.07,1.67-1.9,2.26-3.04,5.46-10.51,6.83-21.14,.94-32-1.3-2.4-1.75-4.93,1.08-6.53,3-1.7,5.04-.06,6.57,2.5,6.04,10.09,6.82,20.71,3.06,31.73-1.73,5.06-3.94,9.92-6.84,14.42-1.39,2.16-1.31,3.91,.28,5.88,2.72,3.37,5.31,6.85,7.93,10.29,1.34,1.76,2.72,1.84,3.99,.01,4.77-6.82,9.92-13.49,11.74-21.85,2.84-13.05-1.15-23.95-10.9-32.88-.61-.56-1.34-1.02-1.86-1.66-1.68-2.02-2.1-4.28-.27-6.33,1.74-1.95,3.94-1.61,5.85-.15,9.59,7.35,15.39,16.88,16.48,29.05,.13,1.49,.02,3,.02,4.5Zm-29.9,37.78c-.8-1.15-1.7-2.53-2.69-3.84-8-10.56-7.88-10.45-15.99,.13-2.65,3.46-2.93,5.9,.6,8.73,2.78,2.22,4.35,7.17,7.6,7.15,3.34-.02,4.94-4.87,7.52-7.4,1.26-1.24,2.8-2.4,2.96-4.77Z"/>
    <path class="cls-2" d="M13.06,133.28C5.32,133.21-.13,127.67,0,119.99c.12-7.44,6.08-13.29,13.43-13.19,7.36,.1,13.16,6.09,13.06,13.49-.09,7.57-5.76,13.05-13.43,12.98Zm-2.91-22.96c-6.85,2.74-9.24,7.23-7.55,13.17,1.16,4.07,5.3,6.79,9.47,6.21-6.15-7.22-6.58-10.74-1.92-19.37Z"/>
    <path class="cls-2" d="M35.12,154.53c-3.43-.03-5.84-2.48-5.79-5.88,.05-3.3,2.69-5.89,5.95-5.84,3.26,.05,5.83,2.7,5.79,5.97-.04,3.35-2.55,5.78-5.95,5.75Zm-1.29-10.17c-3.03,1.21-4.09,3.2-3.35,5.83,.51,1.8,2.35,3.01,4.2,2.75-2.73-3.2-2.91-4.76-.85-8.58Z"/>
    <path class="cls-2" d="M29.95,22.85c-4.13-.04-7.03-2.99-6.96-7.08,.07-3.96,3.24-7.08,7.15-7.03,3.92,.06,7.01,3.24,6.96,7.19-.05,4.03-3.07,6.96-7.15,6.92Zm-1.55-12.24c-3.65,1.46-4.92,3.85-4.02,7.01,.62,2.17,2.82,3.62,5.05,3.31-3.28-3.85-3.5-5.72-1.02-10.32Z"/>
    <path class="cls-2" d="M182.97,22.39c-6.49-.06-11.04-4.69-10.93-11.12,.1-6.23,5.09-11.13,11.24-11.04,6.16,.09,11.01,5.1,10.94,11.29-.08,6.34-4.83,10.93-11.24,10.87Zm-2.44-19.23c-5.73,2.29-7.73,6.05-6.32,11.02,.97,3.41,4.43,5.68,7.93,5.2-5.15-6.05-5.51-8.99-1.61-16.22Z"/>
    <path class="cls-1" d="M182.71,152.17c-6.94-.06-11.81-5.02-11.7-11.89,.11-6.66,5.44-11.9,12.02-11.81,6.59,.09,11.78,5.45,11.7,12.08-.08,6.78-5.16,11.69-12.02,11.63Zm-2.61-20.56c-6.13,2.45-8.27,6.47-6.76,11.79,1.04,3.65,4.74,6.08,8.48,5.56-5.51-6.47-5.89-9.62-1.72-17.35Z"/>
    <path class="cls-2" d="M165.33,175.03c-3.77-.04-6.42-2.78-6.35-6.59,.06-3.69,2.96-6.59,6.53-6.54,3.58,.05,6.4,3.02,6.35,6.69-.05,3.75-2.8,6.47-6.53,6.44Zm-1.42-11.39c-3.33,1.36-4.49,3.58-3.67,6.53,.56,2.02,2.58,3.36,4.61,3.08-2.99-3.58-3.2-5.33-.94-9.61Z"/>
  </g>
</svg>